SplineFontDB: 3.2
FontName: SingScript.sg_template
FullName: SingScript.sg "template" module
FamilyName: SingScript.sg
Weight: Regular
Copyright: Copyright (c) 2025, 05524F.sg (Singapore)
Version: v2
ItalicAngle: 0
UnderlinePosition: -100
UnderlineWidth: 67
Ascent: 600
Descent: 300
InvalidEm: 0
sfntRevision: 0x00010000
LayerCount: 2
Layer: 0 0 "Back" 1
Layer: 1 0 "Fore" 0
XUID: [1021 768 647112374 32286]
StyleMap: 0x0040
FSType: 0
OS2Version: 4
OS2_WeightWidthSlopeOnly: 0
OS2_UseTypoMetrics: 1
CreationTime: 1740441635
ModificationTime: 1753902952
PfmFamily: 65
TTFWeight: 400
TTFWidth: 5
LineGap: 81
VLineGap: 0
Panose: 3 0 5 3 0 0 0 0 0 0
OS2TypoAscent: 600
OS2TypoAOffset: 0
OS2TypoDescent: -300
OS2TypoDOffset: 0
OS2TypoLinegap: 81
OS2WinAscent: 590
OS2WinAOffset: 0
OS2WinDescent: 233
OS2WinDOffset: 0
HheadAscent: 590
HheadAOffset: 0
HheadDescent: -233
HheadDOffset: 0
OS2SubXSize: 585
OS2SubYSize: 630
OS2SubXOff: 0
OS2SubYOff: 126
OS2SupXSize: 585
OS2SupYSize: 630
OS2SupXOff: 0
OS2SupYOff: 432
OS2StrikeYSize: 44
OS2StrikeYPos: 232
OS2CapHeight: 467
OS2XHeight: 300
OS2Vendor: '5524'
OS2CodePages: 00000001.00000000
OS2UnicodeRanges: 80000003.10000000.00000000.00000000
MarkAttachClasses: 1
DEI: 91125
LangName: 1033 "" "" "" "" "" "Version v2"
Encoding: Custom
UnicodeInterp: none
NameList: AGL For New Fonts
DisplaySize: -48
AntiAlias: 1
FitToEm: 0
WidthSeparation: 50
WinInfo: 0 27 9
BeginPrivate: 6
BlueValues 21 [0 0 300 300 467 467]
OtherBlues 11 [-233 -233]
StdHW 4 [67]
StdVW 4 [67]
StemSnapH 33 [52 59 63 67 73 78 86 93 159 167]
StemSnapV 4 [67]
EndPrivate
Grid
0 -50 m 28
 351 -50 549 -50 900 -50 c 1052
0 -83 m 28
 351 -83 549 -83 900 -83 c 1052
0 349 m 28
 349 349 549 349 900 349 c 1052
0 383 m 28
 350 383 549 383 900 383 c 1052
0 -200 m 28
 351 -200 549 -200 900 -200 c 1052
0 -233 m 28
 351 -233 549 -233 900 -233 c 1052
250 211 m 28
 289 211 311 211 350 211 c 1052
250 100 m 28
 289 100 311 100 350 100 c 1052
250 -100 m 28
 289 -100 311 -100 350 -100 c 1052

StartChar: filledbox
Encoding: 0 9632 0
Width: 517
VWidth: 0
Flags: HW
LayerCount: 2
Fore
SplineSet
25 383 m 1
 492 383 l 1
 492 -83 l 1
 25 -83 l 1
 25 383 l 1
EndSplineSet
EndChar

StartChar: H22073
Encoding: 1 9633 1
Width: 517
VWidth: 0
Flags: HW
LayerCount: 2
Fore
SplineSet
25 383 m 1
 492 383 l 1
 492 -83 l 1
 25 -83 l 1
 25 383 l 1
92 316 m 1
 92 -16 l 1
 425 -16 l 1
 425 316 l 1
 92 316 l 1
EndSplineSet
EndChar

StartChar: uni25A2
Encoding: 2 9634 2
Width: 517
VWidth: 0
Flags: HW
LayerCount: 2
Fore
SplineSet
25 383 m 1
 492 383 l 1
 492 -83 l 1
 25 -83 l 1
 25 383 l 1
92 316 m 1
 92 -16 l 1
 425 -16 l 1
 425 316 l 1
 92 316 l 1
EndSplineSet
EndChar

StartChar: uni25A3
Encoding: 3 9635 3
Width: 517
VWidth: 0
Flags: HW
LayerCount: 2
Fore
SplineSet
25 383 m 1
 492 383 l 1
 492 -83 l 1
 25 -83 l 1
 25 383 l 1
92 316 m 1
 92 -16 l 1
 425 -16 l 1
 425 316 l 1
 92 316 l 1
142 267 m 1
 375 267 l 1
 375 33 l 1
 142 33 l 1
 142 267 l 1
EndSplineSet
EndChar

StartChar: uni25A4
Encoding: 4 9636 4
Width: 517
VWidth: 0
Flags: HW
LayerCount: 2
Fore
SplineSet
425 17 m 1
 92 17 l 1
 92 -16 l 1
 425 -16 l 1
 425 17 l 1
425 83 m 1
 425 117 l 1
 92 117 l 1
 92 83 l 2
 425 83 l 1
425 217 m 1
 92 217 l 1
 92 183 l 1
 425 183 l 1
 425 217 l 1
425 283 m 1
 425 316 l 1
 92 316 l 1
 92 283 l 1
 425 283 l 1
25 383 m 1
 492 383 l 1
 492 -83 l 1
 25 -83 l 1
 25 383 l 1
EndSplineSet
EndChar

StartChar: uni25A5
Encoding: 5 9637 5
Width: 517
VWidth: 0
Flags: HW
LayerCount: 2
Fore
SplineSet
391 316 m 1
 391 -17 l 1
 424 -17 l 1
 424 316 l 1
 391 316 l 1
325 316 m 1
 291 316 l 1
 291 -17 l 1
 325 -17 l 1
 325 316 l 1
191 316 m 1
 191 -17 l 1
 225 -17 l 1
 225 316 l 1
 191 316 l 1
125 316 m 1
 92 316 l 1
 92 -17 l 1
 125 -17 l 1
 125 316 l 1
25 -83 m 1
 25 383 l 1
 492 383 l 1
 492 -83 l 1
 25 -83 l 1
EndSplineSet
EndChar

StartChar: uni25A6
Encoding: 6 9638 6
Width: 517
VWidth: 0
Flags: HW
LayerCount: 2
Fore
SplineSet
491 -83 m 1
 25 -83 l 1
 25 383 l 1
 491 383 l 1
 492 383 l 1
 492 -83 l 1
 491 -83 l 1
125 17 m 1
 92 17 l 1
 92 -16 l 1
 125 -16 l 1
 125 17 l 1
125 117 m 1
 92 117 l 1
 92 83 l 1
 125 83 l 1
 125 117 l 1
125 217 m 1
 92 217 l 1
 92 183 l 1
 125 183 l 1
 125 217 l 1
125 283 m 1
 125 316 l 1
 92 316 l 1
 92 283 l 1
 125 283 l 1
225 17 m 1
 191 17 l 1
 191 -16 l 1
 225 -16 l 1
 225 17 l 1
225 117 m 1
 191 117 l 1
 191 83 l 1
 225 83 l 1
 225 117 l 1
225 217 m 1
 191 217 l 1
 191 183 l 1
 225 183 l 1
 225 217 l 1
225 316 m 1
 191 316 l 1
 191 283 l 1
 225 283 l 1
 225 316 l 1
325 17 m 1
 291 17 l 1
 291 -16 l 1
 325 -16 l 1
 325 17 l 1
325 117 m 1
 291 117 l 1
 291 83 l 1
 325 83 l 1
 325 117 l 1
325 217 m 1
 291 217 l 1
 291 183 l 1
 325 183 l 1
 325 217 l 1
325 283 m 1
 325 316 l 1
 291 316 l 1
 291 283 l 1
 325 283 l 1
424 17 m 1
 391 17 l 1
 391 -16 l 1
 424 -16 l 1
 424 17 l 1
424 117 m 1
 391 117 l 1
 391 83 l 1
 424 83 l 1
 424 117 l 1
424 217 m 1
 391 217 l 1
 391 183 l 1
 424 183 l 1
 424 217 l 1
424 316 m 1
 391 316 l 1
 391 283 l 1
 424 283 l 1
 424 316 l 1
EndSplineSet
EndChar

StartChar: uni25A7
Encoding: 7 9639 7
Width: 517
VWidth: 0
Flags: HW
LayerCount: 2
Fore
SplineSet
424 196 m 1
 424 316 l 1
 305 316 l 1
 424 196 l 1
424 102 m 1
 211 316 l 1
 139 316 l 1
 424 30 l 1
 424 102 l 1
305 -17 m 1
 377 -17 l 1
 92 269 l 1
 92 196 l 1
 305 -17 l 1
211 -17 m 1
 92 102 l 1
 92 -17 l 1
 211 -17 l 1
25 -83 m 1
 25 383 l 1
 492 383 l 1
 492 -83 l 1
 25 -83 l 1
EndSplineSet
EndChar

StartChar: uni25A8
Encoding: 8 9640 8
Width: 517
VWidth: 0
Flags: HW
LayerCount: 2
Fore
SplineSet
305 -16 m 1
 425 -16 l 1
 425 103 l 1
 305 -16 l 1
211 -16 m 1
 425 197 l 1
 425 269 l 1
 139 -16 l 1
 211 -16 l 1
92 103 m 1
 92 31 l 2
 378 316 l 1
 305 316 l 1
 92 103 l 1
92 197 m 1
 211 316 l 1
 92 316 l 1
 92 197 l 1
25 383 m 1
 492 383 l 1
 492 -83 l 1
 25 -83 l 1
 25 383 l 1
EndSplineSet
EndChar

StartChar: uni25A9
Encoding: 9 9641 9
Width: 517
VWidth: 0
Flags: HW
LayerCount: 2
Fore
SplineSet
492 383 m 1
 492 -83 l 1
 25 -83 l 1
 25 383 l 1
 492 383 l 1
174.936523438 279.936523438 m 1
 211 316 l 1
 139 316 l 1
 174.936523438 279.936523438 l 1
127.936523438 232.936523438 m 1
 92 269 l 1
 92 197 l 1
 127.936523438 232.936523438 l 1
341.283203125 279.412109375 m 1
 378 316 l 1
 305 316 l 1
 341.283203125 279.412109375 l 1
258.081054688 196.500976562 m 1
 294.158203125 232.451171875 l 1
 257.889648438 268.889648438 l 1
 221.854492188 232.854492188 l 1
 258.081054688 196.500976562 l 1
174.64453125 113.35546875 m 1
 210.999023438 149.583007812 l 1
 174.854492188 185.854492188 l 1
 138.5 149.5 l 1
 174.64453125 113.35546875 l 1
92 102 m 1
 92 31 l 1
 127.5625 66.4375 l 1
 92 102 l 1
174.5625 19.4375 m 1
 139 -16 l 1
 210 -16 l 1
 174.5625 19.4375 l 1
423.998046875 196.001953125 m 1
 424 268.00390625 l 1
 388.0859375 232.215820312 l 1
 423.998046875 196.001953125 l 1
340.94921875 113.341796875 m 1
 376.998046875 149.22265625 l 1
 341.047851562 185.341796875 l 1
 304.999023438 149.418945312 l 1
 340.94921875 113.341796875 l 1
257.609375 30.390625 m 1
 293.83984375 66.4521484375 l 1
 257.916992188 102.500976562 l 1
 221.64453125 66.35546875 l 1
 257.609375 30.390625 l 1
376.00390625 -16 m 1
 340.712890625 19.4150390625 l 1
 305 -16 l 1
 376.00390625 -16 l 1
424 102 m 1
 387.909179688 66.2177734375 l 1
 424 30 l 1
 424 102 l 1
EndSplineSet
EndChar

StartChar: H18543
Encoding: 10 9642 10
Width: 350
VWidth: 0
Flags: HW
LayerCount: 2
Fore
SplineSet
25 300 m 1
 325 300 l 1
 325 0 l 1
 25 0 l 1
 25 300 l 1
EndSplineSet
EndChar

StartChar: H18551
Encoding: 11 9643 11
Width: 350
VWidth: 0
Flags: HW
LayerCount: 2
Fore
SplineSet
25 300 m 1
 325 300 l 1
 325 0 l 1
 25 0 l 1
 25 300 l 1
92 233 m 1
 92 67 l 1
 258 67 l 1
 258 233 l 1
 92 233 l 1
EndSplineSet
EndChar

StartChar: filledrect
Encoding: 12 9644 12
Width: 517
VWidth: 0
Flags: HW
LayerCount: 2
Fore
SplineSet
25 267 m 1
 492 267 l 1
 492 33 l 1
 25 33 l 1
 25 267 l 1
EndSplineSet
EndChar

StartChar: uni25AD
Encoding: 13 9645 13
Width: 517
VWidth: 0
Flags: HW
LayerCount: 2
Fore
SplineSet
25 267 m 1
 492 267 l 1
 492 33 l 1
 25 33 l 1
 25 267 l 1
92 200 m 1
 92 100 l 1
 425 100 l 1
 425 200 l 1
 92 200 l 1
EndSplineSet
EndChar

StartChar: uni25AE
Encoding: 14 9646 14
Width: 283
VWidth: 0
Flags: HW
LayerCount: 2
Fore
SplineSet
25 383 m 1
 258 383 l 1
 258 -83 l 1
 25 -83 l 1
 25 383 l 1
EndSplineSet
EndChar

StartChar: uni25AF
Encoding: 15 9647 15
Width: 283
VWidth: 0
Flags: HW
LayerCount: 2
Fore
SplineSet
25 383 m 1
 258 383 l 1
 258 -83 l 1
 25 -83 l 1
 25 383 l 1
92 316 m 1
 92 -16 l 1
 192 -16 l 1
 192 316 l 1
 92 316 l 1
EndSplineSet
EndChar

StartChar: uni25B0
Encoding: 16 9648 16
Width: 517
VWidth: 0
Flags: HW
LayerCount: 2
Fore
SplineSet
25 33 m 1
 160 267 l 1
 492 267 l 1
 357 33 l 1
 25 33 l 1
EndSplineSet
EndChar

StartChar: uni25B1
Encoding: 17 9649 17
Width: 517
VWidth: 0
Flags: HW
LayerCount: 2
Fore
SplineSet
25 33 m 1
 160 267 l 1
 492 267 l 1
 357 33 l 1
 25 33 l 1
199 200 m 1
 141 100 l 1
 318 100 l 1
 376 200 l 1
 199 200 l 1
EndSplineSet
EndChar

StartChar: triagup
Encoding: 18 9650 18
Width: 589
VWidth: 0
Flags: HW
LayerCount: 2
Fore
SplineSet
25 -83 m 1
 295 383 l 1
 564 -83 l 1
 25 -83 l 1
EndSplineSet
EndChar

StartChar: uni25B3
Encoding: 19 9651 19
Width: 589
VWidth: 0
Flags: HW
LayerCount: 2
Fore
SplineSet
25 -83 m 1
 295 383 l 1
 564 -83 l 1
 25 -83 l 1
141 -16 m 1
 448 -16 l 1
 295 250 l 1
 141 -16 l 1
EndSplineSet
EndChar

StartChar: uni25B4
Encoding: 20 9652 20
Width: 396
VWidth: 0
Flags: HW
LayerCount: 2
Fore
SplineSet
25 0 m 1
 198 300 l 1
 371 0 l 1
 25 0 l 1
EndSplineSet
EndChar

StartChar: uni25B5
Encoding: 21 9653 21
Width: 396
VWidth: 0
Flags: HW
LayerCount: 2
Fore
SplineSet
25 0 m 1
 198 300 l 1
 371 0 l 1
 25 0 l 1
141 67 m 1
 255 67 l 1
 198 167 l 1
 141 67 l 1
EndSplineSet
EndChar

StartChar: uni25B6
Encoding: 22 9654 22
Width: 516
VWidth: 0
Flags: HW
LayerCount: 2
Fore
SplineSet
25 420 m 1
 491 150 l 1
 25 -120 l 1
 25 420 l 1
EndSplineSet
EndChar

StartChar: uni25B7
Encoding: 23 9655 23
Width: 516
VWidth: 0
Flags: HW
LayerCount: 2
Fore
SplineSet
25 420 m 1
 491 150 l 1
 25 -120 l 1
 25 420 l 1
93 304 m 1
 93 -4 l 1
 359 150 l 1
 93 304 l 1
EndSplineSet
EndChar

StartChar: uni25B8
Encoding: 24 9656 24
Width: 350
VWidth: 0
Flags: HW
LayerCount: 2
Fore
SplineSet
25 323 m 1
 325 150 l 1
 25 -23 l 1
 25 323 l 1
EndSplineSet
EndChar

StartChar: uni25B9
Encoding: 25 9657 25
Width: 350
VWidth: 0
Flags: HW
LayerCount: 2
Fore
SplineSet
25 323 m 1
 325 150 l 1
 25 -23 l 1
 25 323 l 1
92 207 m 1
 92 93 l 1
 192 150 l 1
 92 207 l 1
EndSplineSet
EndChar

StartChar: triagrt
Encoding: 26 9658 26
Width: 350
VWidth: 0
Flags: HW
LayerCount: 2
Fore
SplineSet
25 323 m 1
 325 150 l 1
 25 -23 l 1
 25 323 l 1
EndSplineSet
EndChar

StartChar: uni25BB
Encoding: 27 9659 27
Width: 350
VWidth: 0
Flags: HW
LayerCount: 2
Fore
SplineSet
25 323 m 1
 325 150 l 1
 25 -23 l 1
 25 323 l 1
92 207 m 1
 92 93 l 1
 192 150 l 1
 92 207 l 1
EndSplineSet
EndChar

StartChar: triagdn
Encoding: 28 9660 28
Width: 589
VWidth: 0
Flags: HW
LayerCount: 2
Fore
SplineSet
564 383 m 1
 294 -83 l 1
 25 383 l 1
 564 383 l 1
EndSplineSet
EndChar

StartChar: uni25BD
Encoding: 29 9661 29
Width: 589
VWidth: 0
Flags: HW
LayerCount: 2
Fore
SplineSet
564 383 m 1
 294 -83 l 1
 25 383 l 1
 564 383 l 1
448 316 m 1
 141 316 l 1
 294 50 l 1
 448 316 l 1
EndSplineSet
EndChar

StartChar: uni25BE
Encoding: 30 9662 30
Width: 396
VWidth: 0
Flags: HW
LayerCount: 2
Fore
SplineSet
371 300 m 1
 198 0 l 1
 25 300 l 1
 371 300 l 1
EndSplineSet
EndChar

StartChar: uni25BF
Encoding: 31 9663 31
Width: 396
VWidth: 0
Flags: HW
LayerCount: 2
Fore
SplineSet
371 300 m 1
 198 0 l 1
 25 300 l 1
 371 300 l 1
255 233 m 1
 141 233 l 1
 198 133 l 1
 255 233 l 1
EndSplineSet
EndChar

StartChar: uni25C0
Encoding: 32 9664 32
Width: 516
VWidth: 0
Flags: HW
LayerCount: 2
Fore
SplineSet
491 -120 m 1
 25 150 l 1
 491 420 l 1
 491 -120 l 1
EndSplineSet
EndChar

StartChar: uni25C1
Encoding: 33 9665 33
Width: 516
VWidth: 0
Flags: HW
LayerCount: 2
Fore
SplineSet
491 -120 m 1
 25 150 l 1
 491 420 l 1
 491 -120 l 1
425 -4 m 1
 425 304 l 1
 159 150 l 1
 425 -4 l 1
EndSplineSet
EndChar

StartChar: uni25C2
Encoding: 34 9666 34
Width: 350
VWidth: 0
Flags: HW
LayerCount: 2
Fore
SplineSet
325 -23 m 1
 25 150 l 1
 325 323 l 1
 325 -23 l 1
EndSplineSet
EndChar

StartChar: uni25C3
Encoding: 35 9667 35
Width: 350
VWidth: 0
Flags: HW
LayerCount: 2
Fore
SplineSet
325 -23 m 1
 25 150 l 1
 325 323 l 1
 325 -23 l 1
258 93 m 1
 258 207 l 1
 158 150 l 1
 258 93 l 1
EndSplineSet
EndChar

StartChar: triaglf
Encoding: 36 9668 36
Width: 350
VWidth: 0
Flags: HW
LayerCount: 2
Fore
SplineSet
325 -23 m 1
 25 150 l 1
 325 323 l 1
 325 -23 l 1
EndSplineSet
EndChar

StartChar: uni25C5
Encoding: 37 9669 37
Width: 350
VWidth: 0
Flags: HW
LayerCount: 2
Fore
SplineSet
325 -23 m 1
 25 150 l 1
 325 323 l 1
 325 -23 l 1
258 93 m 1
 258 207 l 1
 158 150 l 1
 258 93 l 1
EndSplineSet
EndChar

StartChar: uni25C6
Encoding: 38 9670 38
Width: 517
VWidth: 0
Flags: HW
LayerCount: 2
Fore
SplineSet
25 150 m 1
 258 383 l 1
 492 150 l 1
 258 -83 l 1
 25 150 l 1
EndSplineSet
EndChar

StartChar: uni25C7
Encoding: 39 9671 39
Width: 517
VWidth: 0
Flags: HW
LayerCount: 2
Fore
SplineSet
25 150 m 1
 258 383 l 1
 492 150 l 1
 258 -83 l 1
 25 150 l 1
258 288 m 1
 120 150 l 1
 258 12 l 1
 397 150 l 1
 258 288 l 1
EndSplineSet
EndChar

StartChar: uni25C8
Encoding: 40 9672 40
Width: 517
VWidth: 0
Flags: HW
LayerCount: 2
Fore
SplineSet
25 150 m 1
 258 383 l 1
 492 150 l 1
 258 -83 l 1
 25 150 l 1
258 288 m 1
 120 150 l 1
 258 12 l 1
 397 150 l 1
 258 288 l 1
258 225 m 1
 333 150 l 1
 258 75 l 1
 183 150 l 1
 258 225 l 1
EndSplineSet
EndChar

StartChar: uni25C9
Encoding: 41 9673 41
Width: 517
VWidth: 0
Flags: HW
LayerCount: 2
Fore
SplineSet
258 267 m 28
 323 267 375 215 375 150 c 28
 375 85 323 33 258 33 c 28
 193 33 141 85 141 150 c 28
 141 215 193 267 258 267 c 28
25 150 m 4
 25 279 129 383 258 383 c 4
 387 383 492 279 492 150 c 4
 492 21 387 -83 258 -83 c 4
 129 -83 25 21 25 150 c 4
258 316 m 4
 166 316 92 242 92 150 c 4
 92 58 166 -16 258 -16 c 4
 350 -16 425 58 425 150 c 4
 425 242 350 316 258 316 c 4
EndSplineSet
EndChar

StartChar: lozenge
Encoding: 42 9674 42
Width: 283
VWidth: 0
Flags: HW
LayerCount: 2
Fore
SplineSet
25 150 m 1
 142 383 l 1
 258 150 l 1
 142 -83 l 1
 25 150 l 1
142 250 m 1
 100 150 l 1
 142 67 l 1
 183 150 l 1
 142 250 l 1
EndSplineSet
EndChar

StartChar: circle
Encoding: 43 9675 43
Width: 517
VWidth: 0
Flags: HW
LayerCount: 2
Fore
SplineSet
25 150 m 0
 25 279 129 383 258 383 c 0
 387 383 492 279 492 150 c 0
 492 21 387 -83 258 -83 c 0
 129 -83 25 21 25 150 c 0
258 316 m 0
 166 316 92 242 92 150 c 0
 92 58 166 -16 258 -16 c 0
 350 -16 425 58 425 150 c 0
 425 242 350 316 258 316 c 0
EndSplineSet
EndChar

StartChar: uni25CC
Encoding: 44 9676 44
Width: 517
VWidth: 0
Flags: HW
LayerCount: 2
Fore
SplineSet
25 150 m 0
 25 279 129 383 258 383 c 0
 387 383 492 279 492 150 c 0
 492 21 387 -83 258 -83 c 0
 129 -83 25 21 25 150 c 0
258 316 m 0
 166 316 92 242 92 150 c 0
 92 58 166 -16 258 -16 c 0
 350 -16 425 58 425 150 c 0
 425 242 350 316 258 316 c 0
EndSplineSet
EndChar

StartChar: uni25CD
Encoding: 45 9677 45
Width: 517
VWidth: 0
Flags: HW
LayerCount: 2
Fore
SplineSet
109 76.482421875 m 1
 109 223.517578125 l 1
 98.109375 201.3828125 92 176.434570312 92 150 c 0
 92 123.565429688 98.109375 98.6171875 109 76.482421875 c 1
175 6.0556640625 m 1
 190.280273438 -2.7412109375 207.111328125 -9.173828125 225 -12.7509765625 c 1
 225 312.750976562 l 1
 207.111328125 309.173828125 190.280273438 302.741210938 175 293.944335938 c 1
 175 6.0556640625 l 1
342 293.514648438 m 1
 326.703125 302.374023438 309.868164062 308.883789062 292 312.556640625 c 1
 292 -12.556640625 l 1
 309.868164062 -8.8837890625 326.703125 -2.3740234375 342 6.4853515625 c 1
 342 293.514648438 l 1
408 223.11328125 m 1
 408 76.88671875 l 1
 418.8828125 98.919921875 425 123.725585938 425 150 c 0
 425 176.274414062 418.8828125 201.080078125 408 223.11328125 c 1
25 150 m 0
 25 279 129 383 258 383 c 0
 387 383 492 279 492 150 c 0
 492 21 387 -83 258 -83 c 0
 129 -83 25 21 25 150 c 0
EndSplineSet
EndChar

StartChar: uni25CE
Encoding: 46 9678 46
Width: 517
VWidth: 0
Flags: HW
LayerCount: 2
Fore
SplineSet
208 150 m 28
 208 122 230 100 258 100 c 24
 285 100 308 122 308 150 c 24
 308 177 286 200 258 200 c 24
 231 200 208 177 208 150 c 28
258 267 m 24
 323 267 375 215 375 150 c 24
 375 85 323 33 258 33 c 24
 193 33 141 85 141 150 c 24
 141 215 193 267 258 267 c 24
25 150 m 0
 25 279 129 383 258 383 c 0
 387 383 492 279 492 150 c 0
 492 21 387 -83 258 -83 c 0
 129 -83 25 21 25 150 c 0
258 316 m 0
 166 316 92 242 92 150 c 0
 92 58 166 -16 258 -16 c 0
 350 -16 425 58 425 150 c 0
 425 242 350 316 258 316 c 0
EndSplineSet
EndChar

StartChar: H18533
Encoding: 47 9679 47
Width: 517
VWidth: 0
Flags: HW
LayerCount: 2
Fore
SplineSet
25 150 m 0
 25 279 129 383 258 383 c 0
 387 383 492 279 492 150 c 0
 492 21 387 -83 258 -83 c 0
 129 -83 25 21 25 150 c 0
EndSplineSet
EndChar

StartChar: uni25D0
Encoding: 48 9680 48
Width: 517
VWidth: 0
Flags: HW
LayerCount: 2
Fore
SplineSet
25 150 m 0
 25 279 129 383 258 383 c 0
 387 383 492 279 492 150 c 0
 492 21 387 -83 258 -83 c 0
 129 -83 25 21 25 150 c 0
258 316 m 0
 258 -16 l 0
 350 -16 425 58 425 150 c 0
 425 242 350 316 258 316 c 0
EndSplineSet
EndChar

StartChar: uni25D1
Encoding: 49 9681 49
Width: 517
VWidth: 0
Flags: HW
LayerCount: 2
Fore
SplineSet
25 150 m 0
 25 279 129 383 258 383 c 0
 387 383 492 279 492 150 c 0
 492 21 387 -83 258 -83 c 0
 129 -83 25 21 25 150 c 0
258 316 m 4
 166 316 92 242 92 150 c 0
 92 58 166 -16 258 -16 c 4
 258 316 l 4
EndSplineSet
EndChar

StartChar: uni25D2
Encoding: 50 9682 50
Width: 517
VWidth: 0
Flags: HW
LayerCount: 2
Fore
SplineSet
25 150 m 0
 25 279 129 383 258 383 c 0
 387 383 492 279 492 150 c 0
 492 21 387 -83 258 -83 c 0
 129 -83 25 21 25 150 c 0
258 316 m 0
 166 316 92 242 92 150 c 4
 425 150 l 4
 425 242 350 316 258 316 c 0
EndSplineSet
EndChar

StartChar: uni25D3
Encoding: 51 9683 51
Width: 517
VWidth: 0
Flags: HW
LayerCount: 2
Fore
SplineSet
25 150 m 0
 25 279 129 383 258 383 c 0
 387 383 492 279 492 150 c 0
 492 21 387 -83 258 -83 c 0
 129 -83 25 21 25 150 c 0
92 150 m 4
 92 58 166 -16 258 -16 c 0
 350 -16 425 58 425 150 c 4
 92 150 l 4
EndSplineSet
EndChar

StartChar: uni25D4
Encoding: 52 9684 52
Width: 517
VWidth: 0
Flags: HW
LayerCount: 2
Fore
SplineSet
25 150 m 0
 25 279 129 383 258 383 c 0
 387 383 492 279 492 150 c 0
 492 21 387 -83 258 -83 c 0
 129 -83 25 21 25 150 c 0
258 316 m 0
 166 316 92 242 92 150 c 0
 92 58 166 -16 258 -16 c 0
 350 -16 425 58 425 150 c 0
 258 150 l 5
 258 316 l 0
EndSplineSet
EndChar

StartChar: uni25D5
Encoding: 53 9685 53
Width: 517
VWidth: 0
Flags: HW
LayerCount: 2
Fore
SplineSet
25 150 m 0
 25 279 129 383 258 383 c 0
 387 383 492 279 492 150 c 0
 492 21 387 -83 258 -83 c 0
 129 -83 25 21 25 150 c 0
258 316 m 0
 166 316 92 242 92 150 c 0
 258 150 l 5
 258 316 l 0
EndSplineSet
EndChar

StartChar: uni25D6
Encoding: 54 9686 54
Width: 517
VWidth: 0
Flags: HW
LayerCount: 2
Fore
SplineSet
25 150 m 0
 25 279 129 383 258 383 c 4
 258 -83 l 4
 129 -83 25 21 25 150 c 0
EndSplineSet
EndChar

StartChar: uni25D7
Encoding: 55 9687 55
Width: 517
VWidth: 0
Flags: HW
LayerCount: 2
Fore
SplineSet
258 383 m 4
 387 383 492 279 492 150 c 0
 492 21 387 -83 258 -83 c 4
 258 383 l 4
EndSplineSet
EndChar

StartChar: uni25DC
Encoding: 56 9692 56
Width: 517
VWidth: 0
Flags: HW
LayerCount: 2
Fore
SplineSet
258 383 m 1
 258 316 l 1
 166 315 92 242 92 150 c 1
 25 150 l 1
 25 279 129 383 258 383 c 1
EndSplineSet
EndChar

StartChar: uni25DD
Encoding: 57 9693 57
Width: 517
VWidth: 0
Flags: HW
LayerCount: 2
Fore
SplineSet
491 150 m 5
 424 150 l 5
 423 242 350 316 258 316 c 5
 258 383 l 5
 387 383 491 279 491 150 c 5
EndSplineSet
EndChar

StartChar: uni25DE
Encoding: 58 9694 58
Width: 517
VWidth: 0
Flags: HW
LayerCount: 2
Fore
SplineSet
258 -83 m 5
 258 -16 l 5
 350 -15 424 58 424 150 c 5
 491 150 l 5
 491 21 387 -83 258 -83 c 5
EndSplineSet
EndChar

StartChar: uni25DF
Encoding: 59 9695 59
Width: 517
VWidth: 0
Flags: HW
LayerCount: 2
Fore
SplineSet
25 150 m 5
 92 150 l 5
 93 58 166 -16 258 -16 c 5
 258 -83 l 5
 129 -83 25 21 25 150 c 5
EndSplineSet
EndChar

StartChar: uni25E0
Encoding: 60 9696 60
Width: 517
VWidth: 0
Flags: HW
LayerCount: 2
Fore
SplineSet
25 150 m 0
 92 150 l 0
 92 241.836811791 166 316 258 316 c 24
 350 316 425 241.836811791 425 150 c 0
 492 150 l 0
 492 279.034879006 387 383 258 383 c 24
 129 383 25 279.034879006 25 150 c 0
EndSplineSet
EndChar

StartChar: uni25E1
Encoding: 61 9697 61
Width: 517
VWidth: 0
Flags: HW
LayerCount: 2
Fore
SplineSet
491 183 m 4
 424 183 l 4
 424 91 350 17 258 17 c 28
 166 17 91 91 91 183 c 4
 24 183 l 4
 24 54 129 -50 258 -50 c 28
 387 -50 491 54 491 183 c 4
EndSplineSet
EndChar
